<?xml version="1.0" encoding="iso-8859-1"?>
<!-- Generator: Adobe Illustrator 19.0.0, SVG Export Plug-In . SVG Version: 6.00 Build 0)  -->
<svg version="1.1" id="Capa_1" xmlns="http://www.w3.org/2000/svg" xmlns:xlink="http://www.w3.org/1999/xlink" x="0px" y="0px"
	 viewBox="0 0 512 512" style="enable-background:new 0 0 512 512;" xml:space="preserve">
<path style="fill:#C9C6CA;" d="M344.177,147.782h-16.032c-4.427,0-8.016,3.589-8.016,8.016v56.113h32.065v-56.113
	C352.194,151.371,348.605,147.782,344.177,147.782z"/>
<path style="fill:#FFD164;" d="M391.431,214.654l-111.383-34.807V91.669H111.71c-4.427,0-8.016,3.589-8.016,8.016v56.113
	l-32.065,24.048v40.081h80.161L408.306,380.25V237.607C408.306,227.089,401.471,217.791,391.431,214.654z"/>
<path style="fill:#5D5360;" d="M151.79,219.927c-12.629,0-24.233,5.753-31.885,15.794L15.517,356.197l-0.19,0.219l-0.173,0.232
	C10.218,363.252,7.5,371.635,7.5,380.25c0,22.101,17.981,40.081,40.081,40.081h320.645c22.1,0,40.081-17.98,40.081-40.081
	c0-19.862-13.41-31.71-21.519-35.69L174.615,226.895l-0.4-0.222l-0.422-0.175l-0.391-0.257l-0.071-0.035
	C166.899,222.097,159.462,219.927,151.79,219.927L151.79,219.927z"/>
<g>
	<path style="fill:#FFC350;" d="M223.935,155.798H103.694V99.685c0-4.427,3.589-8.016,8.016-8.016h112.226v64.129H223.935z"/>
	<path style="fill:#FFC350;" d="M296.081,380.25H119.726v-24.048c0-4.427,3.589-8.016,8.016-8.016h160.323
		c4.427,0,8.016,3.589,8.016,8.016V380.25z"/>
	<circle style="fill:#FFC350;" cx="368.23" cy="380.25" r="40.08"/>
	<circle style="fill:#FFC350;" cx="151.79" cy="260.01" r="40.08"/>
</g>
<path style="fill:#5D5360;" d="M215.919,91.669v55.023c0,6.031,0.972,12.022,2.879,17.743l19.342,58.026
	c1.091,3.273,4.154,5.481,7.605,5.481h26.287c4.427,0,8.016-3.589,8.016-8.016V91.669H215.919z"/>
<circle style="fill:#FFC350;" cx="223.94" cy="308.11" r="16.03"/>
<circle style="fill:#FFD164;" cx="151.79" cy="260.01" r="20.04"/>
<circle style="fill:#FFC350;" cx="47.581" cy="380.25" r="40.08"/>
<circle style="fill:#FFD164;" cx="47.581" cy="380.25" r="20.04"/>
<rect x="215.92" y="91.67" style="fill:#4B3F4E;" width="64.13" height="24.05"/>
<path style="fill:#FFC350;" d="M440.371,308.105v80.161c0,8.854,7.178,16.032,16.032,16.032h32.065l-24.048-96.194L440.371,308.105
	L440.371,308.105z"/>
<path style="fill:#5D5360;" d="M135.758,91.669h48.097v56.113c0,4.427-3.589,8.016-8.016,8.016h-40.081V91.669z"/>
<rect x="135.76" y="91.67" style="fill:#4B3F4E;" width="48.1" height="24.05"/>
<path d="M151.871,267.508c4.142,0,7.5-3.358,7.5-7.5s-3.358-7.5-7.5-7.5h-0.08c-4.142,0-7.46,3.358-7.46,7.5
	S147.729,267.508,151.871,267.508z"/>
<path d="M55.161,380.25c0-4.142-3.358-7.5-7.5-7.5h-0.08c-4.142,0-7.46,3.358-7.46,7.5s3.398,7.5,7.54,7.5
	S55.161,384.392,55.161,380.25z"/>
<path d="M504.5,396.798h-10.176l-22.628-90.512c-0.834-3.339-3.834-5.681-7.276-5.681h-24.048c-4.142,0-7.5,3.358-7.5,7.5v64.645
	h-17.064V237.607c0-13.873-8.897-25.975-22.138-30.112l-33.975-10.617v-41.08c0-8.556-6.96-15.516-15.516-15.516h-0.516v-29.26
	c0-4.145-1.614-8.042-4.544-10.972l-5.668-5.668c-2.93-2.929-7.678-2.928-10.607,0c-2.929,2.929-2.928,7.678,0,10.607l5.668,5.667
	c0.097,0.098,0.151,0.227,0.151,0.365v29.26h-0.516c-8.556,0-15.516,6.96-15.516,15.516v26.372l-25.081-7.838V99.169h8.532
	c4.142,0,7.5-3.358,7.5-7.5s-3.358-7.5-7.5-7.5H111.709c-8.556,0-15.516,6.96-15.516,15.516v52.363l-29.064,21.798
	c-1.889,1.417-3,3.639-3,6v40.081c0,4.142,3.358,7.5,7.5,7.5h45.463L11.311,349.45c-0.152,0.175-0.291,0.357-0.424,0.542
	C4.089,358.222,0,368.767,0,380.25c0,26.236,21.345,47.581,47.581,47.581h320.645c23.684,0,43.377-17.396,46.985-40.081h17.661
	v0.516c0,12.976,10.557,23.532,23.532,23.532H504.5c4.142,0,7.5-3.358,7.5-7.5S508.642,396.798,504.5,396.798z M327.629,155.798
	c0-0.285,0.231-0.516,0.516-0.516h16.032c0.285,0,0.516,0.231,0.516,0.516v36.392l-17.064-5.333V155.798z M223.419,99.169h49.129
	v120.758c0,0.285-0.231,0.516-0.516,0.516h-26.287c-0.223,0-0.419-0.142-0.49-0.353l-19.342-58.026
	c-1.655-4.966-2.495-10.138-2.495-15.373L223.419,99.169L223.419,99.169z M111.193,99.686c0-0.285,0.231-0.516,0.516-0.516h16.549
	v49.129h-17.065C111.193,148.299,111.193,99.686,111.193,99.686z M151.791,227.427c17.965,0,32.581,14.616,32.581,32.581
	s-14.616,32.581-32.581,32.581s-32.581-14.616-32.581-32.581C119.209,242.043,133.825,227.427,151.791,227.427z M47.581,412.831
	C29.616,412.831,15,398.215,15,380.25s14.616-32.581,32.581-32.581s32.581,14.616,32.581,32.581S65.545,412.831,47.581,412.831z
	 M82.209,412.831c6.397-6.795,10.825-15.458,12.356-25.081h226.677c1.531,9.622,5.959,18.286,12.356,25.081H82.209z M321.241,372.75
	H303.58v-16.548c0-8.556-6.96-15.516-15.516-15.516H167.822c-4.142,0-7.5,3.358-7.5,7.5s3.358,7.5,7.5,7.5h120.242
	c0.285,0,0.516,0.231,0.516,0.516v16.548H127.226v-16.548c0-0.285,0.231-0.516,0.516-0.516h8.019c4.142,0,7.5-3.358,7.5-7.5
	s-3.358-7.5-7.5-7.5h-8.019c-8.556,0-15.516,6.96-15.516,15.516v16.548H94.565c-3.608-22.685-23.3-40.081-46.984-40.081
	c-0.642,0-1.279,0.023-1.915,0.049l58.793-67.826c2.453,23.95,22.744,42.697,47.332,42.697c26.236,0,47.581-21.345,47.581-47.581
	c0-4.001-0.502-7.886-1.437-11.602l155.924,86.485C336.936,340.264,324.087,354.86,321.241,372.75z M368.226,412.831
	c-15.383,0-28.302-10.721-31.699-25.081h63.399C396.528,402.11,383.609,412.831,368.226,412.831z M336.526,372.75
	c3.398-14.36,16.316-25.081,31.699-25.081c15.384,0,28.302,10.721,31.7,25.081H336.526z M400.807,345.622
	c-2.862-2.695-10.243-7.524-10.656-7.753l-213.409-118.37c-0.038-0.021-0.077-0.036-0.116-0.057
	c-7.234-4.446-15.74-7.015-24.835-7.015H79.129v-28.831l27.064-20.298h69.646c8.556,0,15.516-6.96,15.516-15.516v-24.048
	c0-4.142-3.358-7.5-7.5-7.5s-7.5,3.358-7.5,7.5v24.048c0,0.285-0.231,0.516-0.516,0.516h-32.581V99.169h65.161v47.522
	c0,6.85,1.098,13.618,3.264,20.116l19.342,58.027c2.116,6.346,8.031,10.609,14.72,10.609h26.287c8.556,0,15.516-6.96,15.516-15.516
	v-29.879l101.646,31.764c6.946,2.17,11.612,8.518,11.612,15.795v108.015H400.807z M456.403,396.798
	c-4.705,0-8.532-3.828-8.532-8.532v-72.661h10.692l20.298,81.193L456.403,396.798L456.403,396.798z"/>
<path d="M223.936,331.637c12.976,0,23.532-10.557,23.532-23.532s-10.557-23.532-23.532-23.532s-23.532,10.557-23.532,23.532
	S210.96,331.637,223.936,331.637z M223.936,299.573c4.705,0,8.532,3.828,8.532,8.532s-3.828,8.532-8.532,8.532
	s-8.532-3.828-8.532-8.532S219.231,299.573,223.936,299.573z"/>
<g>
</g>
<g>
</g>
<g>
</g>
<g>
</g>
<g>
</g>
<g>
</g>
<g>
</g>
<g>
</g>
<g>
</g>
<g>
</g>
<g>
</g>
<g>
</g>
<g>
</g>
<g>
</g>
<g>
</g>
</svg>
