<svg id="Capa_1" enable-background="new 0 0 512 512" height="512" viewBox="0 0 512 512" width="512" xmlns="http://www.w3.org/2000/svg"><g id="XMLID_31_"><path id="XMLID_1632_" d="m267.694 275.093h-122.895c-5.865 0-11.19 3.428-13.626 8.77l-26.519 58.167c-2.116 4.644-1.73 10.046 1.026 14.34s7.503 6.89 12.6 6.89h149.414c8.273 0 14.979-6.716 14.979-15v-58.167c0-8.284-6.707-15-14.979-15z" fill="#07485e"/><g id="XMLID_90_"><path id="XMLID_1645_" d="m267.694 275.093h-69.415v88.167h69.415c8.273 0 14.979-6.716 14.979-15v-58.167c0-8.284-6.707-15-14.979-15z" fill="#04303e"/></g><path id="XMLID_1633_" d="m308.888 333.26h-218.582c-5.208 0-10.042 2.709-12.766 7.153l-40.413 65.936c-2.837 4.629-2.954 10.432-.305 15.171 2.649 4.74 7.648 7.675 13.072 7.675h258.995c8.273 0 14.979-6.716 14.979-15v-65.935c-.001-8.284-6.707-15-14.98-15z" fill="#70d940"/><path id="XMLID_1631_" d="m305.71 212.155c-2.833-3.05-6.806-4.782-10.966-4.782h-202.455c-4.734 0-9.188 2.24-12.014 6.042-2.827 3.802-3.693 8.718-2.336 13.259l17.58 58.813c1.898 6.349 7.731 10.699 14.35 10.699h180.634c7.854 0 14.374-6.075 14.94-13.92l4.24-58.813c.3-4.155-1.139-8.247-3.973-11.298z" fill="#70d940"/><g id="XMLID_138_" fill="#56c125"><path id="XMLID_1652_" d="m308.888 333.26h-110.609v95.936h110.609c8.273 0 14.979-6.716 14.979-15v-65.936c0-8.284-6.706-15-14.979-15z"/><path id="XMLID_1651_" d="m305.444 282.266 4.24-58.813c.299-4.155-1.14-8.248-3.974-11.298-2.833-3.05-6.806-4.782-10.966-4.782h-96.465v88.813h92.225c7.854 0 14.374-6.075 14.94-13.92z"/></g><path id="XMLID_1630_" d="m505.23 50.375c-6.918-4.54-16.205-2.605-20.738 4.324-72.046 110.093-180.94 276.232-186.798 284.464-4.878 6.396-3.847 15.563 2.419 20.702 2.784 2.284 6.144 3.396 9.482 3.396 4.336 0 8.636-1.875 11.597-5.496 3.428-4.191 119.483-181.376 188.356-286.622 4.534-6.93 2.601-16.228-4.318-20.768zm-207.484 288.719c.115-.153.208-.264.269-.339-.091.112-.181.226-.269.339z" fill="#cee1e4"/><g id="XMLID_1646_"><g id="XMLID_1629_"><ellipse id="XMLID_1638_" cx="49.893" cy="414.195" fill="#dfeef0" rx="34.914" ry="34.885"/><path id="XMLID_1637_" d="m49.893 464.081c-27.511 0-49.893-22.379-49.893-49.886s22.382-49.886 49.893-49.886 49.893 22.379 49.893 49.886-22.382 49.886-49.893 49.886zm0-69.771c-10.992 0-19.935 8.921-19.935 19.886s8.943 19.885 19.935 19.885 19.935-8.92 19.935-19.885-8.943-19.886-19.935-19.886z" fill="#07485e"/></g><g id="XMLID_1628_"><ellipse id="XMLID_1636_" cx="319.168" cy="386.72" fill="#cee1e4" rx="62.41" ry="62.36"/><path id="XMLID_1635_" d="m319.167 464.081c-42.673 0-77.389-34.704-77.389-77.36s34.717-77.36 77.389-77.36 77.389 34.704 77.389 77.36-34.716 77.36-77.389 77.36zm0-124.721c-26.154 0-47.432 21.246-47.432 47.36s21.278 47.36 47.432 47.36 47.431-21.246 47.431-47.36-21.277-47.36-47.431-47.36z" fill="#04303e"/></g><g id="XMLID_1627_"><ellipse id="XMLID_1634_" cx="319.168" cy="386.72" fill="#04303e" rx="14.979" ry="15"/></g></g></g></svg>