<svg id="Capa_1" enable-background="new 0 0 512 512" height="512" viewBox="0 0 512 512" width="512" xmlns="http://www.w3.org/2000/svg"><g id="XMLID_1233_"><g id="XMLID_161_"><g id="XMLID_2063_"><path id="XMLID_2074_" d="m201.354 491.628h-52.619c-8.354 0-15.126-6.772-15.126-15.126s6.772-15.126 15.126-15.126h52.619c8.354 0 15.126 6.772 15.126 15.126s-6.772 15.126-15.126 15.126z" fill="#ff9e22"/></g><g id="XMLID_2064_"><path id="XMLID_2075_" d="m117.602 512c-8.354 0-15.126-6.772-15.126-15.126v-12.879c0-8.354 6.772-15.126 15.126-15.126s15.126 6.772 15.126 15.126v12.879c0 8.354-6.773 15.126-15.126 15.126z" fill="#09607d"/></g><g id="XMLID_92_"><path id="XMLID_2087_" d="m117.602 468.869v43.131c8.354 0 15.126-6.772 15.126-15.126v-12.879c0-8.354-6.773-15.126-15.126-15.126z" fill="#07485e"/></g><path id="XMLID_2066_" d="m148.735 425.786h-62.267c-8.354 0-15.126 6.772-15.126 15.126v39.627c0 8.354 6.772 15.126 15.126 15.126h62.267c8.354 0 15.126-6.772 15.126-15.126v-39.627c0-8.353-6.772-15.126-15.126-15.126z" fill="#07485e"/><g id="XMLID_76_"><path id="XMLID_2086_" d="m148.735 425.786h-31.134v69.879h31.134c8.354 0 15.126-6.772 15.126-15.126v-39.627c0-8.353-6.772-15.126-15.126-15.126z" fill="#04303e"/></g><g id="XMLID_2067_"><path id="XMLID_2076_" d="m89.366 367.802c-4.173 0-8.328-1.717-11.317-5.083-5.546-6.247-4.979-15.807 1.268-21.353l380.188-337.551c4.453-3.954 10.81-4.927 16.242-2.485 5.432 2.441 8.926 7.842 8.926 13.796v55.391c0 40.621-33.047 73.668-73.668 73.668h-64.035l-247.567 219.802c-2.881 2.558-6.466 3.815-10.037 3.815zm290.637-256.942h29.715c23.741 0 43.056-19.315 43.056-43.056v-21.553z" fill="#dfeef0"/></g><path id="XMLID_2068_" d="m178.273 260.175c-5.456-2.431-11.829-1.425-16.27 2.567l-86.714 77.956c-11.512 10.35-18.114 25.164-18.114 40.644v38.513c0 8.354 6.772 15.126 15.126 15.126h99.815c8.354 0 15.126-6.772 15.126-15.126v-145.864c-.001-5.972-3.515-11.385-8.969-13.816z" fill="#8fe26a"/><g id="XMLID_227_"><path id="XMLID_2084_" d="m178.273 260.175c-5.456-2.431-11.829-1.425-16.27 2.567l-44.401 39.916v132.322h54.513c8.354 0 15.126-6.772 15.126-15.126v-145.863c0-5.972-3.514-11.385-8.968-13.816z" fill="#70d940"/></g></g><g id="XMLID_2072_"><path id="XMLID_2073_" d="m255.024 476.508c-4.068 0-8.125-1.631-11.106-4.852l-14.04-15.173c-7.977-8.62-19.288-13.565-31.033-13.565h-156.393c-8.354 0-15.126-6.772-15.126-15.126s6.772-15.126 15.126-15.126h156.392c20.148 0 39.552 8.482 53.236 23.269l14.041 15.173c5.673 6.131 5.303 15.701-.829 21.375-2.909 2.694-6.593 4.025-10.268 4.025z" fill="#09607d"/></g><g id="XMLID_91_"><path id="XMLID_2085_" d="m266.122 451.109-14.041-15.173c-13.684-14.788-33.088-23.269-53.236-23.269h-81.242v30.251h81.242c11.745 0 23.056 4.944 31.033 13.565l14.04 15.173c2.981 3.221 7.038 4.852 11.106 4.852 3.675 0 7.359-1.331 10.269-4.024 6.131-5.673 6.502-15.243.829-21.375z" fill="#07485e"/></g></g></svg>